<svg xmlns="http://www.w3.org/2000/svg" viewBox="102.50501525878906 71.59500122070312 370 365.890625"><rect height="100%" width="100%" x="102.50501525878906" y="71.59500122070312" fill="rgba(255, 255, 255, 0)"/> <svg xmlns="http://www.w3.org/2000/svg" xmlns:xlink="http://www.w3.org/1999/xlink" version="1.1" id="Layer_1" x="172.50501525878906" y="141.59500122070312" viewBox="74 69 426.3000183105469 418.6999816894531" xml:space="preserve" height="225.890625" width="230" preserveAspectRatio="xMinYMin" enable-background="new 0 0 568 576" style="overflow: visible;"><path class="st0" d="M496.6,250.4l-32-1.6c-16.4-69.4-79.8-129.2-151-140.8L308,73.4l-23-2.1l0,0.1L262,69l-40.7,41   c-0.1,0-0.1,0-0.2,0.1l-0.2,0c0,0-0.2,0.1-0.5,0.2c-1.8,0.7-3.8,1.8-6,3.3c-19.1,11.2-74.9,49.3-87.1,119.4l-25.1-0.7L74,279   l5.1,31.3h38.8c19.8,73.1,88.5,131.7,161.6,139.4l7.2,37.2l49,0.8l36.7-56.8c90.1-42.5,101.9-131,101.9-131l26-27.6L496.6,250.4z" style="fill: #212121;"></path><path class="st1" d="M476.3,259.5l-31.2-1.6c-16-67.6-77.8-125.9-147.1-137.3l-5.8-33.8L273,82l-20.3,18l2.4,19.8   c-34.9,4.9-63.3,23.4-80,50.8c-20.9,21.6-32.4,52.2-30.3,87.7L107,253l-13.3,24.9L98,295l54.2,1.6C174,364,239.3,417,307.8,422.7   l5.2,36.9l22.8,0.4l16.2-24l-6.4-15.9c23-5.7,42.8-18.8,58.2-36.4c27-19.4,43.7-50.6,45.1-87.1l12.4,0.3L483,278L476.3,259.5z    M339,382.3l-7.5-43.2l-20.5,9.4l-12.4,7.9l3.2,22.8c-43-10-82.3-41.3-103.1-81.5l18.6-13.3l-3.7-22.5l-28.1-1.4   c-0.3-1.5-0.6-2.9-0.8-4.4c-4.3-26.5,0.2-50.4,11.3-69.5c17-17,41.1-27.1,69.1-27.2l0.6,3.4l34.6,22L312,180l5-10   c40.7,15.5,71.4,47.6,87.4,87.7l0.4,2.4l-10,13.1l3.6,22.1l15,0.4c1.8,22.4-2.9,42.8-12.7,59.7C385.3,370.7,364.1,380.5,339,382.3z   " style="fill: #AB2D2D; fill-opacity: 1;"></path><path class="st2" d="M482.8,278.2l-3.5-21.3l-31.2-1.6C432,187.7,370.3,129.4,301,118l-5.8-33.8l-22.5-2.1l5.8,33.9   c-75.4-1-127.6,58-114.9,136.3c0.2,1.4,0.5,2.9,0.8,4.3l-57.4-2.9l3.8,23.4l59.8,2.6c22.9,65.2,86.3,116.1,153.1,122.2l6,34.2h22.2   l-5.9-33.9c67.3-4.3,111.4-57.8,105.6-125.1L482.8,278.2z M342,379.8l-7.5-43.2l-20.5,9.4l5.8,33.3   c-53.9-6.1-104.6-46.6-124.7-98.6l25.1,1.1l-3.7-22.5l-28.1-1.4c-0.3-1.5-0.6-2.9-0.8-4.4c-10.6-65.2,32.2-114.7,94.7-115l4,23.3   L310,171l-5.2-30.7c57.3,10,108.3,58,122.3,114l-20-1l3.6,22.1l19.9,0.8C434.5,332,397.7,375.8,342,379.8z" style="fill: #FCB3B3; fill-opacity: 1;"></path><path class="st3" d="M257.5,322.3l-18.3-122c-2.2-14.5,12.9-27.5,22.4-22l110.5,69c16.2,9.4,16.9,33.2,1.8,41.1l-97.4,51.3   C269.5,343.4,259.2,333.8,257.5,322.3z" style="fill: #FFFFFF;"></path></svg></svg>